<svg enable-background="new 0 0 1250 1150" viewBox="0 0 1250 1150" xmlns="http://www.w3.org/2000/svg"><g fill="#e9e9e9"><path d="m150.1 244.8c.3 0 .5-.2.5-.5v-.4c0-.3-.2-.5-.5-.5s-.5.2-.5.5v.4c0 .3.2.5.5.5z"/><path d="m1140.5 944.1c-2.2-8.3-4.6-16.9-5.4-25.6-.2-1.6-.1-3.8-.1-6.4.2-8.3.4-19.8-6.2-22.1-2-.7-3.6-.6-4.8.3-3 2.4-2.3 9.7-1.7 15.5.3 2.8.5 5.2.3 6.5-.9 6-1.6 9.1-2.3 9.5-.2.1-.7-.1-1.3-.4-1.7-.7-4.4-2-9.4.3-4.2 1.9-7.7 4.6-11 7.2-5.1 4-10 7.8-17.6 9.1-.1 0-.3.1-.3.2s-.1.3-.1.4v.2.1c0 .1 0 .2.1.3.2 1.3-.4 2.3-1.7 2.6-1.3.4-3.2-.1-3.6-1.3-.1-.2-.2-.3-.5-.3-.2 0-.4.1-.5.3-.1.3-.4.7-.6 1l-.1.1s-.1.1-.1.2c-.2.2-.3.3-.4.3-.1.1-.2.2-.2.4 0 .1 0 .3.1.4.9.9.9 1.4.9 2.2 0 .5.1 1.1.3 1.9-3.5.7-4.5 2-4.7 3.1-.3 1.2.4 2.5 1.8 3.6v.1c-.9 1.9-1.3 2.5-1.5 2.7-.1 0-.2 0-.3.1s-.2.2-.3.4c-.2 2.2-5.5 6.9-6.9 7.4-.1-.1-.2-.2-.4-.2-.3 0-.5.2-.5.5-.1.1-.2.2-.2.3v.1c0 .1 0 .2.1.3-.3 0-.5.2-.5.5 0 .2.1.4.3.4 0 0 0 .1.1.1v.1.1c0 .2.2.4.4.5s.5-.1.6-.2c.4.6.5 1 .5 1.4-.1.1-.2.3-.2.5 0 .1.1.3.1.4 0 .3 0 .6.1.9 0 .2.2.3.3.4.2.1.3 0 .5-.1 1.9-1.5 3.4-2 5.1-1.4-.9 1.2-1 2.1-1.1 2.8 0 .3-.1.5-.2.6-.1.2-.1.4 0 .5.1.2.3.3.5.2 3.4-.5 5.3.7 6.9 2.9-2.2.4-6.7 2.2-10.9 3.9l-.8.3h-.1c-.2 0-.4.1-.5.3-.1.3.1.6.2.7.2.2.4.2.6.1 1.2.5 2.8 3.2 3.4 4.9-.3.1-.7.2-1.2.4-.2.1-.4.3-.4.5 0 .1-.1.1-.1.3-.1.2-.1.4.1.5.2.3.6.6 1.1.7-.4.3-.8.7-1.1 1.2-.1.1-.1.2-.1.3-.1.1-.1.2-.1.3 0 .2.2.4.3.4 2.9.9 13 4.8 13.5 5.9 1 2.8-.2 4.4-1.8 6.4-.9 1.2-2 2.6-2.6 4.5-.6 1.7-3.7 10.6-5 12.8-.1.2-.1.5.2.7.2.1.5.1.7-.1 4.1-5 9.3-5.7 12.7-4.7 1.9.6 3.3 1.8 3.4 3 .1 1.1-1 2-1.9 2.4-.1.1-.2.2-.3.4-.1.1-.3.2-.5.2-.1 0-.1.1-.2.1-.2.1-.4.3-.4.6 0 .2.1.4.3.5s.3 0 .5-.1c.2.1.3.2.4.2.1.1.3.2.4.2 0 .1.1.2.1.2.2.2.4.2.6.1.1 0 .2.1.3.1-3.7 3.6-4.8 3.4-5 3.3s-.5 0-.6.1c-.1.2-.1.5 0 .6.8.9 1.1 1.8 1 2.6-.3 1.3-1.9 2.5-4.5 3.5-.2.1-.3.2-.3.4v.2c0 .2.1.3.3.4 1.9.9 4.2.7 6.1.5 1.7-.2 3.2-.3 3.9.4.4.4.5 1.2.3 2.3 0 .1 0 .3.1.4s.2.2.4.2c1.1 0 2.1-.1 3-.1 2.5-.1 4.4-.2 7.3.7-1.6 1.5-3 2.4-4.3 3.3-2.6 1.8-4.7 3.2-6.3 7.7v.2c0 .2.2.5.4.5.3.1 1.1.5 1.7.9-.2.2-.5.3-.6.5-.1 0-.2 0-.3 0-.2 0-.3.2-.3.3-.1.4 0 .6.2.7 0 0 .1 0 .2.1s.1.3.1.6c0 .1.1.3.2.4s.2.1.4.1h.5c.1.2.3.3.5.2.1 0 .2-.1.3-.2.5.1.9.2 1.4.3.7.2 1.4.3 2.3.3 0 .4-.2.6-.3.9s-.3.6-.4 1.1c-.3 0-.5.1-.6.5-.1.5.2.6 2 .9.6.1 1.7.3 2.2.5 0 .2.2.3.4.4 7.4 1.3 10.7 1.8 16.2 1.8 1.1 3.9 6.5 11 11.2 11 1.9 0 4.4-1.2 5.7-6.7 0-.1 0-.2 0-.2 0-.1 0-.1 0-.2 0-.2-.1-.4-.2-.4-.2-.2-.5-.2-.7 0-.7.6-1.4 1.1-2.1 1.6-.3.2-.6.4-.9.7 0-.2-.1-.3-.2-.4.2-.2.4-.5.5-.7 2.6-3.4 5.5-7.3 3.4-11.9 2.2-1 4.3-3 6-5.5.2 0 .4-.2.4-.5v-.2c.3-.5.6-1 .9-1.6.1-.2.1-.3 0-.5 0-.1-.1-.1-.1-.1v-.1c0-.2-.1-.3-.2-.4s-.3-.1-.4-.1c-1.3.4-1.9.4-2.4.4-.8 0-1.3.1-3.2 1.2-.2-1.1-.2-1.9.2-2.3.6-.7 2.5-.5 4.2-.2.2 0 .4-.1.5-.3s.1-.4 0-.5c0-.1 0-.2 0-.4 0-.1.1-.2.1-.3s0-.1 0-.2c.2-1.8 1.1-6.1 1.8-8.8.6-2.4 1-4.6 1.1-5.3 1.3-10.7 3.2-20.7 5.2-31.4.5-2.8 1.1-5.7 1.6-8.6 2.4-15.7-1.6-30.4-5.4-44.7z"/><path d="m226.4 856.1h-.2c-.3 0-.5.2-.5.5s.2.5.5.5h.2c.3 0 .5-.2.5-.5s-.2-.5-.5-.5z"/><path d="m267.3 726.4c.1 0 .3-.1.4-.2.5-.5.7-.7.4-1.1-.1-.2-.4-.3-.6-.2 0 0-.8.5-.7 1 .1.3.3.5.5.5z"/><path d="m832.9 900c-.1-.1-.3-.2-.4-.1-.2-.2-.3-.3-.5-.3s-.3.1-.4.3c-.1.3 0 .4.3.8.1.1.3.2.4.2h.1c.1 0 .3 0 .4-.1l.1-.1c.2-.2.2-.6 0-.7z"/><path d="m916.8 858.3c-.2-.1-.4-.1-.6.1-.1.1-.3.5-.2.8.1.2.3.3.5.3.4 0 .5-.4.5-.6.1-.3 0-.5-.2-.6zm.1.8-.2-.2.3-.1c0 .1 0 .2-.1.3z"/><path d="m988 236.2c-4.2-.8-8.2-1.8-12.1-2.7-10.4-2.5-20.3-4.9-32.2-4.3l-.1-.1c-2.4-1.4-4.6-3.7-6.7-5.9-2.8-2.9-5.5-5.7-8.3-5.8.2-.5.3-.9.4-1.1.1-.1.2-.2.3-.4 0-.2 0-.3-.1-.4s-.3-.2-.5-.1c-.1 0-.2 0-.3.2-1.7 1-3.4 2.1-5.1 3.1-6.5 4.2-12.1 7.9-18.1 1.8-.1-.1-.2-.1-.4-.1l-.1-.1c-.1-.1-.3-.2-.5-.2s-.3.1-.4.3c-.2.4-.6.9-1.1 1.4-.5.6-1.1 1.2-1.6 2.1-.9-4.3-2.9-7.4-5.6-9-3-1.8-6.9-1.7-11.4 0-.1.1-.2.2-.3.3 0 .1 0 .3.1.4 1.3 1.9 1.6 3.3 1 3.9-1.2 1.3-6 .1-8.5-1.3-2.1-1.2-10-14.2-12-17.9.1-.2.1-.3.1-.5-.2-2.9-12-14.3-21.9-16.2-5.9-1.1-10.5 1.1-13.2 6.6-2-.5-6.4.1-8 .4-.4-4.3-9.4-9.4-16.7-10.4-6-.8-9.9 1-11 5.2-2.4-1.4-4.4-1.2-6.7-.9-1.3.2-2.6.3-4.1.2 1.1-3.2-.5-7-4.5-10.8-.1-.3-.3-.4-.6-.4-1.1.3-1.8.2-2.5.1-.8-.1-1.6-.2-2.6.3.3-1.8 0-3.5-.9-5.2-4.9-8.4-25.7-12.5-32.8-13.6.5-3-.3-8.3-1.1-14-1-7.3-2.2-15.6-.3-17.6.3-.3.8-.4 1.3-.3.2 0 .4-.1.5-.3 1.8-3.9 1.1-5.7.3-6.5-1.2-1.1-3.5-1-5.9.3-4.6 2.5-9 8.5-7.9 16.1-2.9.3-5.5 1.6-7.9 2.9-2.3 1.2-4.4 2.3-6.8 2.7-2.7.4-5.3-.1-7.9-.6-3.1-.7-6.4-1.3-9.9-.2-2.3-.6-3.7-1-6.2-2.1-.1-1.3 1-3.6 2.1-5.9 1.8-3.8 3.7-7.6 2.1-10-.8-1.3-2.6-1.8-5.2-1.8.3-.8.7-1.7 1.1-2.8 1.7-4.2 3.8-9.4 2.5-12.4-.4-.9-1-1.5-1.9-1.9-.2-.1-.3 0-.5.1-.1.1-.2.2-.2.4h-.1c-.1 0-.3 0-.4.1s-.2.2-.2.4c0 .9.4 1.4.6 1.7.2.2.3.4.4.7 0 0 0 0-.1.1-.6 0-1 0-1.2 0-.6-3.8-3.6-8.7-7.1-10.1-1.6-.7-3.3-.5-4.8.4 0 0 0 0 0-.1-.1-.3-.6-.4-.8-.3-.4.1-1.8.2-3.2.3-6.7.6-12.9 1.3-14.2 3-.1-.4-.3-.4-.5-.4s-.4.1-.5.3 0 .6.2 1c-1.9-1.8-3-5.6-4-9.3-1.3-4.6-2.6-9.4-5.7-10.7-1.3-.6-2.8-.5-4.5.3.2-1 .4-1.5 1-2.8l.1-.2c.1-.2.1-.3 0-.5-.1-.1-.2-.2-.4-.2-13.8-.3-14-.9-15.5-7.1-.6-2.6-1.4-6.1-3.5-10.8-3.7-8.5-7.4-7.9-13-7-1.8.3-3.8.6-6.1.7-2.8.1-4.2.7-5.2 1.1-1.7.7-2.4 1-8.7-2.2-2.5-1.2-8-4.9-9.2-7-4.2-7.5-6.9-22.5-7.1-30.4 0-.2-.1-.3-.3-.4s-.3-.1-.5 0c-3.9 2.3-8.4 3.8-12.4 4.1-.1 0-.2 0-.3.1-1.7.3-11.7 1.4-13.8.6-.2-.1-.5 0-.6.2-.1.1-.1.3 0 .5-.1.1-.3.2-.4.3h-.1c-.2 0-.3 0-.4.2-.1.1-.1.2-.1.3-4.9 3.3-10.3 4.6-15.6 5.9-8.7 2-16.9 4-22.5 14.3-4.3 7.9-6.7 25.1-1.4 34.3-.1-.1-.3-.2-.5-.1-.2 0-.3.2-.4.4-.2.9-.4 1.9-.6 2.9-1.4 6.2-3 13 1 16.1-.1.1-.3.1-.4.2-1.6 1-2.5 3.9-2.3 7.4.2 3.4 1.6 7.4 4.8 9.5-.1.1-.2.4-.1.6.1.1.2.3.3.3l.1.1c0 .1 0 .2.1.3 0 .1-.1.1-.1.2-.1 0-.1 0-.2 0 0 0 0 0-.1 0s-.2 0-.2.1c-.2.1-.3.4-.3.6 0 .1.1.2.2.2-.1.1-.1.3 0 .4.1.2.3.3.5.3.3 0 .6-.1.8-.1v.1c.1.2.3.4.5.4s.5-.1.6-.4c0-.1 0-.2 0-.3v.5c-.6.1-.9.2-1 .4-1.7-.6-4.2-1.5-4.8-4 0-.1-.1-.2-.2-.3s-.3-.1-.4-.1c-4.7 1.3-6.1 4.6-7.5 8-1.3 3-2.6 6.1-6.2 8.5-.1 0-.2 0-.3 0-3.8 1.9-7.2 3.7-10.5 5.5-10 5.4-18.6 10-32.2 13.2-15.4 3.6-41.6 11.3-46.7 23-.2-.2-.4-.3-.6-.3-1-.3-2.1.6-2.2.7s-.2.3-.1.5.2.3.4.3c.6 0 1 .2 1.2.6.9 1.6-1.2 6-2.5 9-1.1 2.3-1.7 3.6-1.6 4.4.9 8.5 7.5 10.9 15.3 11.5-.1 0-.3 0-.4.1-8.2-.3-16.7 4.6-25 9.4-4.8 2.8-9.3 5.4-13.7 6.9-1.5-5.6-20.8-10.8-34-13s-27.9-2.9-30.5 1.4c-2.8-2.3-10.8-15.6-10.8-22.6 0-.9.1-1.6.4-2.1 0 .1 0 .2.1.3s.3.2.5.2c.1 0 .2 0 .3-.4s0-.2.1-.4c.2-.6.6-1.9 1.3-4.2 2.7-2.7 3.7-4.8 2.9-6.4-1.7-3.5-11.5-2.6-22.3-1.2-2.8.4-5.7.7-6.1.5 0 0 0 0-.1 0-.1-.1-.2-.2-.4-.2-2.5 0-3.7-.2-4.2-.3.1-.1.4-.2.7-.3.2 0 .4-.1.5-.2s.2-.3.2-.5-.2-.4-.4-.4h-.1c-1.7-.3-4.4-1.6-7.1-3-4.3-2.2-8.8-4.5-11.3-3.4-1.8.8-2.8 1.7-2.9 2.7-.2 1.6 1.8 2.9 3.4 4.1.7.5 1.7 1.1 1.7 1.4 0 .5 0 1.3-.1 2.3-.2 7-.8 23.4 4 28.5l.6.6c0 .1.1.2.1.3 1.6 1.8 3.2 3.3 4.7 4.6 0 .1.1.3.2.4s.3.1.4.2v.1s0 .1.1.1c.6 1 1.6 2.8 2.2 4-.1.1-.2.3-.1.5.7 3.3 2.4 6.3 4.1 9.2.1.2.3.2.5.2s.4-.1.4-.3c.2-.4.3-.8.4-1 .1 0 .3 0 .4-.1-1.3 2-1.4 5.3-1.5 8.6-.1 2.1-.2 4.3-.5 6.3-.2.1-.3.3-.3.4v.9c0 .2.1.3.2.4v.3s.1.3.2.4c.2.8.7 2.9 1 4.3.3 1.2.5 2.4.6 2.9.1.2.3.4.5.4s.4-.2.5-.4c0-.2 0-.5.1-.7 0-.4 0-.8.1-1.2.5 0 .9-.1 1.2-.2-.9 2-1.2 5.8-1.3 9.6-.8 3.9-2.5 7.5-5 10.1-.1.1-.1.2-.1.4 0 .1.1.3.2.4.5.4.9.6 1.2.5 1.2.3 3.9 6.7 5.7 11 1.6 3.9 3.1 7.6 4.3 9.1.1.1.2.2.4.2.1 0 .3-.1.4-.2.7-.7 1.6-1.1 2.6-1.6.6-.3 1.2-.5 1.8-.9l.4 1.1c.3.9.6 1.8.9 2.9-2.7-1-4.9-.3-7 .3-2.1.7-4.4 1.3-7.3.2-.1-.6-.2-.6-3.3-.7-5.2-.2-17.3-.8-18.8-4.7-.4-1.1.1-2.6 1.6-4.2l.1.1c.2.1.5 0 .7-.2.5-.9.6-1 .4-1.3-.1-.2-.3-.3-.4-.2-.1 0-.2 0-.3.1-.1-.1-.3 0-.4 0-.9.6-2.1 1.2-3.3 1.8-.1-.2-.3-.3-.5-.3h-.1c-.3 0-.5.2-.5.5 0 .1 0 .2.1.3-6.8 3.2-16.3 6.3-18 6.5-.2-.1-.5-.1-.6.1l-.1.1c-1.3 2.6-2.9 3.9-4.5 3.8-1.2-.1-2.2-.9-2.7-2.1-.6-1.5-.2-3.1 1-4.3.1-.1.2-.3.1-.4 0-.2-.1-.3-.3-.4-.8-.5-1.7-.6-2.5-.3.5-.6.6-1.2.5-1.8-.4-1.7-3.4-2.1-5.1-2.2-2.6-.1-6.8.3-7.4 1.9 0 .1-.1.3 0 .5-1.5-.3-2.9-.2-4.2.5-.2.1-.3.3-.3.6.1.2.3.4.5.4.8 0 1.2.2 1.3.3.5 1.3-5.5 6.2-8.3 8.5-2 1.7-3.1 2.5-3.6 3.1-1.5-1.6-2.7-2.2-3.7-1.8-.9.3-1.5 1.4-1.7 3.3-1.6-2.6-3.8-6-6.2-9.5-5.3-8-15.2-23-13.9-24.4h.1c0 .1.1.3.3.3h.1c.2.1.5 0 .6-.2 0-.1 0-.1 0-.2 0-.2-.1-.4-.3-.5-.1-.1-.2-.1-.4 0 0 0 0-.1-.1-.1-.7-1.2-1.6-1.7-2.6-1.7-2.9 0-5.8 4.7-8.2 8.4-.1.1-.1.2-.2.3.4-1.2.9-2.5 1.4-3.9 1.6-4.7 3.8-11.1 5-11.8.1-.1.2-.2.2-.3.3.2.7-.1.7-.4v-.1c0-.3-.2-.5-.5-.5s-.5.2-.5.4c-.1 0-.2-.1-.4 0-5.5 1.8-8.8 5.8-11.7 9.4-.2 0-.3 0-.5.1 0 0 0 0-.1.1.1-1 .9-3.1 1.4-3.8.2 0 .4-.2.4-.4.1-.4 0-.7-.3-1-.4-.5-1.3-.8-2.6-1.1 0-.3-.2-.5-.5-.5h-.2c-.2 0-.4.1-.5.3-.5-.1-.9-.1-1.5-.2-.1-.1-.2-.1-.3-.1-.2-.2-.5-.2-.6 0h-.1c-.1 0-.2 0-.3.1-3.1-.2-7.4-.2-12.9-.1-.5 0-.9 0-1.1 0s-.4.1-.5.3c-2.3 6.9-4.9 13.5-11.8 17.6.5-1.2.4-2.5-.3-3.6-1.5-2.5-5.7-4.1-9.3-3.4-3.4.6-5.7 3-6.3 6.5 0 .3.1.5.4.6.2 0 .3 0 .4-.1.2.3.5.9.6 1.8.1.8 0 2.2-1.3 3.5-2.1-6-3.4-7.6-4.2-8 .1-1.7.1-1.7-.4-1.7-.2 0-.5.1-.6.4 0 0-.2.8-.1 1.4-.4.2-.8.8-1.1 2.1-.1 0-.1 0-.2 0-.1-.7-.2-1.5-.4-2.5-.1-.9-1.4-1.3-2.5-1.5-8.1-1.6-37.8.5-40.2 6.3-.2.5-.2 1.1 0 1.6-1.2-.6-2.1-.9-3.6-1.1.1-.1.2-.2.1-.4 0-.2-.2-.3-.3-.4-.3-.1-.6.2-.8.3-.1.1-.1.2-.1.3-.2 0-.3 0-.5-.1h-.1c-.1 0-.2.1-.3.2-.2.1-.7.4-1.3.7-.4.2-.8.4-1.2.6-.1-.1-.2-.2-.4-.2-.3 0-.5.2-.5.5v.1c-6.2 3.2-11.9 6.7-11.4 9.2.2.9.9 1.5 2.3 1.9-1.8 1-2.1 3.1-2.3 5.2s-.5 4.3-2.1 6c-.2.2-.2.4-.1.6s.4.3.6.1c2.3-1.2 24.3-4.5 27.1-.3 1 1.5-1.3 4-3.4 5.8-.2.2-.2.4-.1.6s.4.3.6.2c.9-.3 1.8-.4 2.6-.5 1-.2 1.8-.3 2.6-.6 2.2.3 4.5.3 6.6-.1-.5.2-1.1.5-1.7.8-.1 0-.2.1-.4.2-.2.2-.2.4-.1.6s.4.3.6.2h.1c-.9.6-1.5 1-1.8 1.3-.3.1-.4.2-.4.3s-.1.2-.1.3c-.2.3-.1.5 0 .7.2.5.5 1 6.7-1 0 1.5.3 1.9 2.1 2.5-6.3-.2-12.6-.7-18.9-1.7-.1-.4-.6-.4-2.3-.4-.3 0-.5.2-.5.5-5.1.8-8.1 1.6-8.1 3.1 0 .8.6 1.8 5.5 3.2-2.4 6.6-2 7.5-1.4 7.8.7.4 1.7.2 6-5.8.7-.4 1.9-.8 3.6-.4 4.2 3 7.8 6.8 10.9 11.5.2.6.2 1.2-.2 1.7-2.2 2.9-14.2 3.9-32.2 2.7-.4 0-.6 0-.6 0-.2 0-.4.2-.5.4s.1.5.3.6c1.2.6 4.3 4.6 7.9 9.1 8.1 10.4 19.2 24.6 26 23.5 2-.3 3.4-1.9 4.4-4.7.1-.2 0-.5-.2-.6 0-.1 0-.2-.1-.3.1-.1.1-.3.1-.4-.1-.4-.2-.7-.3-1 .8.2 1.9 0 3.2-.2 1.5-.2 3.2-.5 4.3 0 .1.1.2.1.5.3.1 0 .2.1.3.1-.2 0-.5-.1-.8-.1-.2 0-.5.1-.6.3s0 .5.2.6c3.9 2.4 6.7 2.9 8.4 1.5 1.1-.9 1.5-2.4 1.5-3.9 1.4 1.4 2.5 2.4 3.4 2.4.2 2.8 2.8 6.8 5.9 7.7 1.2.3 3.1.4 4.9-1.8 0 .1.1.3.2.4.6.8 1.9.6 3.4.4s3.3-.5 4.2.4c0 0 .1.1.2.1.3.1 1.2 1.1 2 2 3.7 4.2 11.1 12.5 21.3 8-.6.7-1 1.3-1.3 1.8-.2.4-.5.7-.7.9-.1 0-.2 0-.2.1-.3.2-1.4 1-1.1 1.9.1.5.5 1 2 1.5 0 .1.1.1.1.2 9.2 16.2 13.8 24 14.5 24.8l.1.1c.8.4 1.5.7 2.1.9 0 .1.1.3.1.4.1.2.3.3.6.3.1 0 .1 0 .2-.1 0 0 0 .1.1.1.1.2.4.3.6.2s.4-.4.3-.6c0 0 0 0 0-.1.5-.1.8-.2 1.1-.5.9-.9 1.6-3.2-3.1-12.7 2.2 1.5 5.6 3.1 6.6 2.9.3-.1.6-.3.6-.7 0-.3-.1-.6-.1-.9.4.6.7.7 1 .7.2 0 .4-.1.6-.2.1 1.4.4 1.9.7 2.1.5.3.9 0 1.2-.2.1-.1.3-.2.5-.2 17.8.7 20.9 2 21.2 2.7.1.2-.4.7-.7.9-.5.4-.9.9-.7 1.4.2.6 1 .9 4.4.9h.1c.6.1.8-.2 1-.5.3-.3.8-1 2.9-2 .5.6 1.7 2.7 2.7 4.5 2.4 4.1 3.6 6.2 4.5 7.1v.3c.1.2.2.4.3.5.4.7.4.8-.3 1.5-.1.1-.2.3-.1.4 0 .1.1.2.2.3-2.8-.3-4.8 1.4-7.3 3.5l-.8.7c-.1.1-.2.3-.2.4 0 .2.1.3.2.4 3.6 2.3 3.6 3 2.6 7.5l-.1-.1c-.6-.7-1.7-1.2-1.9-1.3s-.6.1-.6.3c-.1.3-.2.5 1.8 1.7-.2.1-.5.1-1.2.1-.2 0-.4.1-.5.4s0 .4.2.6c3.7 2.4 17.8 8 24.7 5.2 1.3-.5 2.2-1.3 2.9-2.3.1.4.1.9.2 1.4.5 3.5 1.2 8.2-.6 10.2-.6.7-1.5 1-2.8.9-.1 0-.2 0-.3.1-.5.4-.9.7-1.3 1.1-.4.3-.8.7-1.3 1-.2.1-.2.4-.2.6 0 .1 0 .3-.1.3-.1.1-.2.3-.1.5s.1.3.3.4c1.5.6 3.2 1 5 1.4 4.5 1 9.2 2 10.6 6.2 1.3 3.8.5 4.5-.8 5.7-1.1 1-2.4 2.2-2.9 5.2-.5 2.8-.9 5-1.3 6.9-1.8 8.9-2 9.8 6.4 22.3 1.7 2.5 3.4 5 5 7.6 13.1 20 25.5 38.9 52.3 45.8h.1c.1 0 .2 0 .3-.1s.2-.3.2-.4c-.1-2 .2-3.2.8-3.7.7-.5 2-.2 4 .4.5 5.4-8 13.4-8.4 13.8-.2.2-.2.4-.1.6.1.1.2.2.3.2.3.1.6.3.9.5.8.5 1.7 1 3.8.9-.9.7-1 .9-.9 1.2v.1.1c0 .2.1.3.2.4 2.1 1.7 2 2.2 2 2.5v.3c-.1.2 0 .5.1.7v.1c0 .1 0 .3.1.4 2.1 1.8 6.4 8.9 5.3 10.7-.4.6-1.7.4-3.7-.4-.2-.1-.4 0-.5.1s-.2.4-.1.5c1.1 2.7 2.8 4.6 4.7 5.1h.2c-1.2 0-2.5-.4-4.5-1-.1 0-.1 0-.2 0 0-.1-.1-.1-.1-.2-.1-.1-.2-.1-.2-.2l-.1-.1-.1-.1c-.1-.2-.3-.4-.6-.4-.2 0-.3.2-.4.3v.1c-.1.1-.1.2-.1.3s.1.3.2.4l.2.2c.1.1.2.1.4.1s.1 0 .1.1c.1.1.2.2.4.1 0 .1.1.2.2.2 2.5 1.4 3.6 3.1 3 5.1-.8 3-5.1 5.7-7.2 5.7-.2 0-.3.1-.4.2s-.1.3-.1.5c0 0 0 .1.1.1v.1c-.1.1-.1.3 0 .4 1.3 3.7 3.4 7.1 6.2 10.2-3.1-1.5-5.3-1.2-6.7-.6-2.9 1.3-4.4 4.6-4.2 7.1-.2 0-.4 0-.7 0-.2 0-.3.1-.4.3-.1.1-.1.3 0 .5.9 1.7 1.6 1.8 2.4 1.7.3.2.6.3 1 .3.2 0 .4-.1.5-.3s.1-.4-.1-.6-.4-.3-.5-.4c2.9 1.2 6.4 4 8.9 6 1.2 1 2.3 1.8 3.1 2.3.1.1.4.2.6.1 2.6 5.1 6.4 8.8 10 12.4 5.5 5.6 10.8 10.8 12.1 20.5 0 .2.1.3.3.4 1.3 3.1 1.6 5.6.7 7.4-.5 1.1-1.5 2-2.9 2.5-1.1-5.6-11.9-20.8-20.1-32-.7-.9-1.3-1.7-1.6-2.2h.3c.2-.1.3-.4.2-.7 0-.1 0-.1-.1-.2-.3-.7-1.3-3.5-1.4-4 0-.1 0-.2-.1-.3-.2-.2-.5-.2-.7-.1-10.1 7.5-11.4 27.9-12.5 44.3-.4 5.3-.7 10.3-1.3 13.9-.6 3.7-1.8 8.2-3.2 12.9-3.3 12-7 25.5-3.2 34.3.1.2.3.3.6.3.2-.1.4-.3.4-.5-.1-5.2 2.3-8.4 4.4-11.3 1.1-1.5 2.1-2.9 2.7-4.4.4.4.9.9 1.4 1.3 2 1.9 4.3 4 6.6 6.5-.6-.1-1.2-.1-1.2-.1-.2 0-.4.1-.5.3s0 .4.2.6c2.6 2 2.6 3.1 2.6 3.5-.1.4-.6.8-1.3.9-.4.1-.8.1-1.2 0-.1-.2-.2-.3-.4-.4-.1 0-.2 0-.3 0-.1-.1-.3-.1-.6-.2-.2-.1-.3-.3-.5-.5-.1-.1-.2-.2-.4-.2s-.3 0-.4.1c-.2.2-.4.4-.4.6-.7.1-1.6.1-2.7.3-.1-.5-.2-1.1-.8-1.3s-2-.5-9 12.4c-.1.2-.2.4-.3.5l-.1.1c-2.6 5.9-3.2 13.1-3.8 20.1-.3 3-.5 5.8-.9 8.4-2.3 15.4-5.2 30.8-8.7 45.7-5.6 23.8-14.4 48.6-36.3 51.8-.2 0-.3.1-.4.3-.1.1-.1.3 0 .5l.4.7c1.5 2.9 2.4 4.9 3.8 8.7 0 .1.1.3.3.3.1.1.3 0 .4 0 1.5-.5 20.8 3.5 22.3 4 5.5 4.2 3 9.7.6 15.1-1.6 3.6-3.1 6.9-1.7 9.3 1 1.7 3.4 2.7 7.2 3.1.1 0 .3 0 .4-.1s.2-.2.2-.4c-.1-3.3.6-5.9 2.1-7.4.9-.9 2.1-1.5 3.5-1.7-.6.8-1 1.6-1.4 2.3-.3.7-.7 1.4-1.2 2.1-.1.1-.1.3-.1.4s.1.3.3.3c1.4.6 3 1.1 4.5 1.5 3.7 1 7.2 2 8.5 5.8 0 .1.1.2.3.3.1.1.3.1.4 0 3.2-1.2 4-.3 5.3 1.1 1.2 1.2 2.6 2.8 5.9 3.5 1 .2 4.9.4 8.8.7 3.1.2 6.6.4 6.9.5 4.8 2.2 16.5 14.1 17.8 21.3 0 .2.2.4.4.4h.1c.2 0 .3-.1.4-.2 2.4-3.3 5.6-3.2 9.2-3 3.7.2 7.9.4 11.7-3.3 2.4 2.9 5.4 4.6 9.1 5.1 3.7.1 5.4 2.3 5.3 6.8 0 .2.1.4.3.4 1.1.6 1.9 1.1 2.6 1.6 1.7 1.1 3 1.9 6.1 2.7 1.9.4 4-.4 6-1.2 1.8-.7 3.4-1.3 4.9-1.2 1.9.2 4 1 6 1.7 2.1.8 4.1 1.5 5.9 1.7 0 0 0 0 .1.1.2.2 2.9 1.8 4.1 2.2 0 0 .1 0 .1.1h.2 2.4c18 .2 26.2-.2 27.4-1.4.9-.9.4-2.5-.3-4.5-.9-2.8-2.1-6.4.6-8.8 3.4-3.1 9.5-1.4 14.4 0 1.1.3 2.2.6 3.1.8 8.9 2 17.2 6.2 25.2 10.3 4.7 2.4 9.1 4.7 13.6 6.4 1.7.7 4.7 3 6.4 4.4 1.4 1.1 1.6 1.3 1.8 1.3 2.5.9 11.1 1.3 17.4 1.5 1.4.1 2.7.1 3.7.2-.4 1.1-.4 1.8-.2 2.4.4.8 1.2 1.1 2.2 1.4.5.2 1.1.4 1.8.7-2.2 1.5-2.5 3.3-2.3 4.7 1.2 7.3 19.5 18 24.9 18.8 3.9.6 7.1-.9 10.5-2.6 3.6-1.7 7.4-3.5 12.3-2.7 1.8.3 3.7 1.8 5.6 3.3 1.7 1.3 3.4 2.7 5.1 3.3 2.9 1 5.8 1 8.6 1.1 3 .1 6 .1 9 1.3h.2c.1 0 .3-.1.4-.2.1-.2.2-.4 0-.6-1.6-2.6-1.7-4.7-.5-6.3 5.8-7.5 38.7-3.8 40.9-3.3.1.1.2.1.4 0s.4-.2.4-.5v-.1c.1 0 .2-.1.2-.2.1-.1.1-.3 0-.5-.5-1-1.2-1.8-1.9-2.6-1.5-1.8-2.6-3.1-1.1-5.3.1-.1.1-.3 0-.5s-.2-.3-.4-.3c-3.5-.3-6.1-2.5-7.7-6.4-7-16.8 6-58.7 11.5-65.3.1-.1.1-.3.1-.4 4.3-4.5 10.4-6.4 16.3-8.2 6-1.8 11.7-3.6 14.1-8.1 0-.1.1-.1.1-.2s0-.3 0-.4c5.4-6.9 24.3-21 30.8-23.6 9.6-3.8 11.1-1.4 13.1 1.8 1.5 2.5 3.5 5.6 9.7 6.2.2 0 .4-.1.5-.3 12.3.1 17.6 2.1 28.2 7.4l.2.1c4.8 2.3 16 7.9 22.5 4.8 2.2-1 3.7-3 4.4-5.8.1-.2 0-.5-.3-.6-.2-.1-.5-.1-.6.1-.6.7-1.2 1.8-1.7 2.6-.1.2-.3.5-.4.7-.4-.6-.8-.9-1-1.2-.1-.1-.1-.1-.2-.2 0-.1.1-.3.2-.4.1-.3.3-.7.5-1.2.1-.1 0-.3 0-.4s-.2-.2-.3-.3c-.3-.1-.7-.2-.9-.2h.1c.2-.1.3-.2.3-.4.1 0 .2-.1.3-.2.2-.2.4-.5.5-.5s.2-.1.3-.2c0 .1.1.2.2.2 0 .1.1.2.2.3.1.2.3.3.4.3.2 0 .4-.1.5-.3.5-1.3 1.4-2.1 2.5-2.2 1.4-.1 2.9 1 4.1 3 0 .1 0 .2.1.3 4.9 5.4 11.8 5.2 17.9 5 6-.2 11.2-.3 13.5 4.5-.9.5-1.3 1.1-1.5 1.6-.2 0-.4.1-.5.3s-.2.5.1.7c.1.1.2.1.3.1.1.4.2.8.3 1.1.5 1.4 1 2.9-1.3 5-.1.1-.2.3-.1.5s.2.3.4.3c.9.1 1.9.1 2.8.2 2.4.1 4.7.2 6.5 1 .1.1.3.1.4 0s.2-.2.3-.4c0-.2 0-.3 0-.5 2.8.8 2.9.8 3.6.3.2-.1.5-.3 1-.5.3.2.9.1 1.8-.4.6.7 1.6 1.7 3.1 3 1 .9 2.1 1.9 2.4 2.4.2.2.4.3.7.1.2-.1.3-.4.2-.6v-.1c.1 0 .2-.1.4-.2s.3-.3.3-.6c0-.1 0-.1-.1-.2-.1-.5-.1-.7 0-.7.8-.6 5.8 2.3 7.9 3.6 1.8 1.1 2.6 1.5 3.1 1.7.2.3.5.5.7.6 0 .2-.1.5-.1.8s.1.5.4.6c.6.1 1.3.3 1.9.5s1.1.3 1.7.4c2 5 3 5.2 5.8 4.1 1.3-.5 3.1-1.3 6-1.3.3 0 .5-.2.5-.5s-.2-.5-.5-.5c-.7 0-1.4 0-2 0s-1.1 0-1.7 0v-.1c.2-.4.5-1 .6-1.2.1-.1.1-.3.2-.4s.1-.3 0-.5c-.1-.1-.2-.2-.4-.3-.3 0-.8 0-1.2 0 .1-.2 0-.3-.1-.5l-.1-.1s0 0 .1-.1l.3.1c1 .4 1.2.5 1.4.2.1-.2.1-.4.1-.5h.2c.1.1.2.3.4.3-.1.3-.1.6-.2.9 0 .2 0 .4.2.5.1.1.3.1.5.1 3.4-1.4 12.7.8 14.2 3.4.3.4.5 1.1-.7 2.1-.1.1-.2.2-.2.4v.1s-.1.1-.1.2c-.1.1-.1.3-.1.4s.2.3.3.3.2.2.2.3c-.1.1-.1.3 0 .4.1.2.3.3.5.3h.1c.6-.1 1.1-.1 1.6-.2 1.5-.2 2.5-.3 4.6-.7.2-.1.4-.3.4-.5 0-.1-.1-.2-.1-.3 0 0 0 0 0-.1-.2-.5-1-3.6-1.2-4.5.9-2 4.4-4.2 6.2-4.5.1.1.1.2.3.2s.4 0 .5-.1c1.7.3 2.8.9 3.9 1.4 1.4.7 2.9 1.5 5.5 1.5.2 0 .4-.1.4-.3.1 0 .1-.1.2-.2s.1-.3 0-.5c-.3-.7-.3-1.4-.4-2.2 0-.3 0-.7 0-1 .1-.2.3-.6.4-1.1 0 0 0-.1 0-.2 3.6-1.9 8.6-2.1 12.7-2.3 2.9-.1 5.5-.2 7-.9.8-.3 2.1-1.9 3.7-3.8.4-.5.9-1 1-1.2.2-.1.3-.2.3-.4 0-2.7-.4-6.3-.7-8.8 0-.2-.1-.3-.3-.4s-.4 0-.5.1c-.5.3-4.8 1.2-5.7 1-.4-3.7 6.8-8.3 12.5-12.1 4.6-3 7.3-4.8 7.5-6.3 1.1-1.1 2.1-2.7 3.2-4.3 2.4-3.6 5.2-7.8 9.1-8.4.1 0 .2-.1.3-.1.1.1.1.2.2.3l.4.4c.1.2.3.3.4.4h.2.1c.2 0 .4-.1.5-.3.3-.6 1.7-2.2 2.4-2.9h.1c1.1 0 1.8-.1 2.2-.2.2 0 .5-.1.5-.1.1.1.3.9.5 1.8v.2c0 .2.2.3.3.4.2 0 .4 0 .5-.1 1.6-1.6 1.5-2.2 1-4.1-.1-.5-.3-1.1-.5-1.9 0-.2-.2-.3-.3-.4.1-1.9.8-5.2 2.3-6.2.3-.2 1.1-.7 2.5.6.1.1.2.1.4.1.1 0 .3-.1.4-.2 1.1-1.7 2.3-2.4 3.9-3.4.8-.5 1.7-1.1 2.8-1.9.1.2.2.4.5.4.4 0 .6-.2 1.2-1.4 0 .2.1.3.1.5.1.5.2 1.1.6 1.9.1.2.2.3.4.3h.3s.2.1.4 0 .4-.3.3-.6c-.1-.2 0-.4 0-.5.2.1.4.1.6 0 .1-.1.2-.2.2-.4h.2c.2 0 .3-.2.4-.4 0-.2-.1-.4-.2-.5-.2-.8 3.2-3.5 10.1-8.1 1.2-.8 2.1-1.4 2.5-1.7.2-.1.3-.4.2-.6s-.3-.3-.5-.3c-1.2-1.1 2.9-15.6 4-18.5.4-.9 1.5-1.7 2.5-2.4 1.1-.7 2.2-1.5 2.7-2.5 1.7-4.3 1.8-8 1.8-11.9 0-2.9.1-5.8.8-9.1 0-.2 0-.4-.1-.5s-.3-.2-.5-.1c-2.9.8-5.6 1.7-8 2.4-12.5 3.9-19.3 6.1-34.4-1.5-3-1.5-22-14.2-21.5-21.3.1-1.7 1.4-3 3.9-3.8.2-.1.3-.2.3-.4s-.1-.4-.2-.5c-5.8-3.7-5.6-13.7-2-20.9 2.1-4.1 5.7-8 9.9-6.5.2.1.4 0 .6-.2.1-.2.1-.4 0-.6-1.7-2.3-3-4.3-4.1-6-3.5-5.2-5.6-8.4-12.1-13.4-9.9-7.7-13.6-13.3-20.8-25.9 4.8-3.4 10.6-5 16.3-6.5 7.9-2.1 16.1-4.4 21.7-11.9.2-.2.1-.5-.1-.7-.1-.1-.2-.1-.2-.1 0-2 1.7-10.3 2.4-11.9.3-.1.4-.3.4-.6-.8-3.5-2.5-5.4-4.3-7.5-1-1.1-2-2.2-2.9-3.7-1.3-2-2.8-3.5-4-4.8-3.2-3.2-5.2-5.3-2.9-12.8 0-.1 0-.3-.1-.4s-.2-.2-.4-.2c-5.6-.4-10.5-3.2-13.1-7.5-2.2-3.5-2.4-7.7-.8-11.6.8-1.9 3-2.5 5.5-3.3 3.4-1 7.3-2.1 8.9-7 1.7-5-1.7-9.4-4.7-13.4-1-1.3-1.9-2.5-2.6-3.6-.1-.1-.2-.2-.3-.2s-.3 0-.4.1c-2.3 1.8-3.1 1.6-3.4 1.4-.9-.6-.5-3.8.9-7.4.1-.2 0-.4-.1-.5s-.3-.2-.5-.2c-1.4.3-2.6.1-3.5-.6-2.6-2-3.3-7.7-3.9-13.8-.9-8.5-2-18.2-8.8-21.5-8.8-4.3-23.9 2-29.4 8.2-1.1 1.2-8.1 10.3-6.1 13.9.6 1.2 2 1.6 4.1 1.3.4 1.6.3 3.1-.5 4.5-2.7 4.9-12.6 7.4-19.2 9-1.7.4-3.3.8-4.5 1.2.8-2 .3-3.4-.1-4.5-.3-.8-.5-1.4-.2-2 .7-1.5 2.4-2.4 4.1-3.4 1.8-1 3.7-2 4.6-3.7l.4-.7c2.4-4.5 5.2-9.6 3.5-13.4-.9-1.9-2.8-3.2-5.8-4 1.7-12.7 7.6-19 13.8-25.8 4-4.4 8.2-8.9 11.5-15.3 1.6-3.2 1.6-6.4 1.7-9.4.1-3.9.1-7.5 3.1-11.1 1.9-2.3 5-3.7 8-5 2.3-1 4.7-2.1 6.6-3.6 4.3-3.5 25.6-26.8 21.9-34.6-1.1-2.3-4-3-8.7-2.2.9-1.7 2.1-3.3 3.3-4.8 2.5-3.3 4.9-6.4 3.5-10.1 3.1-.1 5.6-.6 8.5-1.1.6-.1 1.2-.2 1.8-.3.9.1 1.4.4 1.9.7.8.5 1.5.8 2.9.3-.3.6-.5 1.3-.7 2-.3.9-.6 1.9-1.1 2.8-.1.1-.1.3 0 .4 0 .1.1.3.3.3 2.1.9 5 1.4 8 1.4 1.3 0 2.5-.1 3.8-.3 4.9-.7 8.6-2.8 10.2-5.9.1-.1.1-.3 0-.4s-.1-.2-.3-.3c-.4-.2-.9-.4-1.3-.7.2-.1.3-.2.4-.3s.1-.3.1-.4c.1 0 .2 0 .3.1 1.5.4 2.4.6 3.1.1.6-.5.7-1.4.7-3.2 2.2-.1 2.2-.5 2.2-.8 0-.5-.4-.7-1.4-.9 3.1-4.5 2.8-13.3 2.4-21.7-.2-5.6-.4-11 .3-14.9 1.3-6.7 1.5-12.8 1.7-18.7.2-7.5.4-14.5 2.8-22.6 1.6-5.3 2.8-10.9 4-16.9 2.2-10.3 4.5-21 8.7-29.7 4.3-8.8 16.9-32.8 23.6-37.4.2-.1.2-.3.2-.5s-.2.8-.4.8zm-437.6-218-1.9.7c0-.1.1-.1.1-.2.1-.3-.1-.5-.2-.6.6.1 1.3.1 2 .1zm-2.6 1c.1-.1.1-.1.2-.1h.1zm-.5 1.3 2.6-1c-.8.7-1.7 1.3-2.3 1.8-.1-.4-.2-.6-.3-.8zm-.9-1.9c.1-.1.2-.2.2-.4.2.1.3.2.4.3-.3.3-.4.7-.4 1.3 0 0 0 0-.1-.1-.3-.2-.5-.4-.7-.8.3 0 .5-.1.6-.3zm-404.8 225.4c-.1 0-.1 0 0 0zm-110.3 29.9c.1 0 .2.1.2.4-.1-.2-.2-.3-.2-.4zm99.3 97.3c.8.1 1.6.4 2.4.8-1-.2-1.7-.3-2.2-.5-.1-.2-.1-.3-.2-.3zm147.4 234.1-.1-.1c.2.1.4.1.6.2-.2 0-.4 0-.5-.1zm-57.7 252.7-.1.3c-.1 0-.2-.1-.2-.2.1 0 .2 0 .3-.1zm534.9 2.6c.5.6.9 1.5 1.2 2.3 0 .1.1.2.1.3-.4-.9-1-2-1.3-2.6zm2.1 3.8c0-.1-.1-.1 0 0-.1-.1-.2-.2-.2-.4.1.1.2.1.3.1-.1.1-.1.2-.1.3zm8.9 1.2c0-.3.1-.5.1-.6.1.1.2.3.2.4-.1.2-.3.2-.3.2zm-576.9-445.5c.2-.1.3-.3.5-.4 0 .1.1.1.1.2.1.1.2.4.4.8-.4-.3-.7-.5-1-.6z"/><path d="m129.9 406.1c-3.8 4.7.3 10.4 6.4 11 1.5.1 3.1 1 4.5 2.1 1.4-1.2 2.1-2 3.1-3.1-6.1-1.9-7.2-8.3-11.8-7.1-.4-2.3-1.6-2.1-2.2-2.9"/><path d="m194.7 449.7c-.4-.6-.5-.7 0 0"/><path d="m198.3 455.4c3.8 2.7 9.6 5.1 10.9 11.4 1.6-5.8-4.3-9.4-6.3-11.7.2-.1.2-.2.1-.4.4-.5 1.1 1 1.5 1.1-2-3.5-3-4.1-5.7-4.6 0 .1-.6.2-.7.2 1.7 1.8-.1 1.9.2 4"/></g></svg>